<svg width="128" height="131" viewBox="0 0 128 131" fill="none" xmlns="http://www.w3.org/2000/svg">
<path fill-rule="evenodd" clip-rule="evenodd" d="M25.6 106.547C35.2426 103.723 54.3573 107.798 64 100.724C73.6426 107.798 92.7573 103.723 102.4 106.547C102.4 106.547 107.093 108.119 110.933 112.369C108.999 115.193 106.24 115.251 102.4 113.824C92.7573 111.001 73.6426 115.164 64 110.913C54.3573 115.164 35.2426 111.001 25.6 113.824C21.76 115.251 19.0009 115.193 17.0667 112.369C20.9067 108.119 25.6 106.547 25.6 106.547Z" fill="white" stroke="black" stroke-width="1.5" stroke-linejoin="round"/>
<path fill-rule="evenodd" clip-rule="evenodd" d="M42.6667 94.9022C49.7778 102.18 78.2223 102.18 85.3334 94.9022C86.7556 90.5356 85.3334 89.08 85.3334 89.08C85.3334 81.8022 78.2223 77.4356 78.2223 77.4356C93.8667 73.0689 95.2889 43.9578 64.0001 32.3133C32.7112 43.9578 34.1334 73.0689 49.7778 77.4356C49.7778 77.4356 42.6667 81.8022 42.6667 89.08C42.6667 89.08 41.2445 90.5356 42.6667 94.9022Z" fill="white" stroke="black" stroke-width="1.5" stroke-linejoin="round"/>
<path fill-rule="evenodd" clip-rule="evenodd" d="M71.1111 25.0356C71.1111 26.9657 70.3619 28.8169 69.0283 30.1817C67.6948 31.5466 65.886 32.3133 64 32.3133C62.114 32.3133 60.3053 31.5466 58.9717 30.1817C57.6381 28.8169 56.8889 26.9657 56.8889 25.0356C56.8889 23.1054 57.6381 21.2542 58.9717 19.8894C60.3053 18.5245 62.114 17.7578 64 17.7578C65.886 17.7578 67.6948 18.5245 69.0283 19.8894C70.3619 21.2542 71.1111 23.1054 71.1111 25.0356Z" fill="white" stroke="black" stroke-width="1.5" stroke-linejoin="round"/>
<path d="M49.7779 77.4356H78.2223M42.6667 89.08H85.3334M64.0001 46.8689V61.4245M56.889 54.1467H71.1112" stroke="black" stroke-width="1.5" stroke-linecap="round"/>
</svg>
