<svg width="130" height="130" viewBox="0 0 130 130" fill="none" xmlns="http://www.w3.org/2000/svg">
<path fill-rule="evenodd" clip-rule="evenodd" d="M25.9999 105.733C35.7933 102.931 55.2066 106.976 64.9999 99.9556C74.7933 106.976 94.2066 102.931 104 105.733C104 105.733 108.767 107.293 112.667 111.511C110.702 114.313 107.9 114.371 104 112.956C94.2066 110.153 74.7933 114.284 64.9999 110.067C55.2066 114.284 35.7933 110.153 25.9999 112.956C22.0999 114.371 19.2977 114.313 17.3333 111.511C21.2333 107.293 25.9999 105.733 25.9999 105.733Z" fill="black" stroke="black" stroke-width="1.5" stroke-linejoin="round"/>
<path fill-rule="evenodd" clip-rule="evenodd" d="M43.3334 94.1778C50.5556 101.4 79.4445 101.4 86.6667 94.1778C88.1111 89.8444 86.6667 88.4 86.6667 88.4C86.6667 81.1778 79.4445 76.8444 79.4445 76.8444C95.3334 72.5111 96.7778 43.6222 65 32.0667C33.2222 43.6222 34.6667 72.5111 50.5556 76.8444C50.5556 76.8444 43.3334 81.1778 43.3334 88.4C43.3334 88.4 41.8889 89.8444 43.3334 94.1778Z" fill="black" stroke="black" stroke-width="1.5" stroke-linejoin="round"/>
<path fill-rule="evenodd" clip-rule="evenodd" d="M72.222 24.8444C72.222 26.7599 71.4611 28.5969 70.1067 29.9513C68.7523 31.3058 66.9153 32.0667 64.9998 32.0667C63.0844 32.0667 61.2474 31.3058 59.8929 29.9513C58.5385 28.5969 57.7776 26.7599 57.7776 24.8444C57.7776 22.929 58.5385 21.092 59.8929 19.7376C61.2474 18.3831 63.0844 17.6222 64.9998 17.6222C66.9153 17.6222 68.7523 18.3831 70.1067 19.7376C71.4611 21.092 72.222 22.929 72.222 24.8444Z" fill="black" stroke="black" stroke-width="1.5" stroke-linejoin="round"/>
<path d="M50.5555 76.8444H79.4444M43.3333 88.4H86.6666M64.9999 46.5111V60.9556M57.7777 53.7333H72.2221" stroke="white" stroke-width="1.5" stroke-linecap="round"/>
</svg>
