<svg width="131" height="131" viewBox="0 0 131 131" fill="none" xmlns="http://www.w3.org/2000/svg">
<path d="M65.4999 33.8562V17.4667M58.2222 23.2889H72.7777" stroke="black" stroke-width="1.5" stroke-linecap="round"/>
<path fill-rule="evenodd" clip-rule="evenodd" d="M65.5 72.7778C65.5 72.7778 78.6 50.9444 74.2333 42.2111C74.2333 42.2111 71.3222 34.9333 65.5 34.9333C59.6778 34.9333 56.7666 42.2111 56.7666 42.2111C52.4 50.9444 65.5 72.7778 65.5 72.7778Z" fill="white" stroke="black" stroke-width="1.5"/>
<path fill-rule="evenodd" clip-rule="evenodd" d="M36.3889 107.711C52.4 117.9 78.6 117.9 94.6111 107.711V87.3333C94.6111 87.3333 120.811 74.2333 112.078 56.7667C100.433 37.8444 72.7778 46.5778 65.5 68.4111C58.2222 46.5778 30.5666 37.8444 18.9222 56.7667C10.1889 74.2333 36.3889 87.3333 36.3889 87.3333V107.711Z" fill="white"/>
<path d="M65.5 68.4111C72.7778 46.5778 100.433 37.8444 112.078 56.7667C120.811 74.2333 94.6111 87.3333 94.6111 87.3333V107.711C78.6 117.9 52.4 117.9 36.3889 107.711V87.3333C36.3889 87.3333 10.1889 74.2333 18.9222 56.7667C30.5666 37.8444 58.2222 46.5778 65.5 68.4111ZM65.5 68.4111V78.6" stroke="black" stroke-width="1.5" stroke-linecap="round" stroke-linejoin="round"/>
<path d="M36.3889 87.3333C52.4 78.6 78.6 78.6 94.6111 87.3333M36.3889 97.5222C52.4 88.7889 78.6 88.7889 94.6111 97.5222M36.3889 107.711C52.4 98.9778 78.6 98.9778 94.6111 107.711" stroke="black" stroke-width="1.5" stroke-linecap="round" stroke-linejoin="round"/>
</svg>
