<svg width="129" height="130" viewBox="0 0 129 130" fill="none" xmlns="http://www.w3.org/2000/svg">
<path d="M64.5 33.5978V17.3333" stroke="black" stroke-width="1.5" stroke-linecap="round"/>
<path fill-rule="evenodd" clip-rule="evenodd" d="M64.5 72.2222C64.5 72.2222 77.4 50.5556 73.1 41.8889C73.1 41.8889 70.2333 34.6667 64.5 34.6667C58.7667 34.6667 55.9 41.8889 55.9 41.8889C51.6 50.5556 64.5 72.2222 64.5 72.2222Z" fill="black" stroke="black" stroke-width="1.5"/>
<path fill-rule="evenodd" clip-rule="evenodd" d="M35.8333 106.889C51.5999 117 77.3999 117 93.1666 106.889V86.6667C93.1666 86.6667 118.967 73.6667 110.367 56.3333C98.8999 37.5556 71.6666 46.2222 64.4999 67.8889C57.3333 46.2222 30.0999 37.5556 18.6333 56.3333C10.0333 73.6667 35.8333 86.6667 35.8333 86.6667V106.889Z" fill="black"/>
<path d="M64.4999 67.8889C71.6666 46.2222 98.8999 37.5556 110.367 56.3333C118.967 73.6667 93.1666 86.6667 93.1666 86.6667V106.889C77.3999 117 51.5999 117 35.8333 106.889V86.6667C35.8333 86.6667 10.0333 73.6667 18.6333 56.3333C30.0999 37.5556 57.3333 46.2222 64.4999 67.8889ZM64.4999 67.8889V78" stroke="black" stroke-width="1.5" stroke-linecap="round" stroke-linejoin="round"/>
<path d="M57.3333 23.1111H71.6666" stroke="black" stroke-width="1.5" stroke-linecap="round"/>
<path d="M91.7333 85.2222C91.7333 85.2222 116.1 73.6667 109.019 57.3444C97.8966 40.4445 71.6666 52 64.4999 70.7778M64.4999 70.7778V76.8444M64.4999 70.7778C57.3333 52 31.1033 40.4445 19.9806 57.3444C12.8999 73.6667 37.2666 85.2222 37.2666 85.2222" stroke="white" stroke-width="1.5" stroke-linecap="round" stroke-linejoin="round"/>
<path d="M35.8333 86.6667C51.5999 78 77.3999 78 93.1666 86.6667M35.8333 96.7778C51.5999 88.1111 77.3999 88.1111 93.1666 96.7778M35.8333 106.889C51.5999 98.2222 77.3999 98.2222 93.1666 106.889" stroke="white" stroke-width="1.5" stroke-linecap="round" stroke-linejoin="round"/>
</svg>
