<svg width="130" height="130" viewBox="0 0 130 130" fill="none" xmlns="http://www.w3.org/2000/svg">
<path fill-rule="evenodd" clip-rule="evenodd" d="M63.5555 29.7556C93.8888 32.6444 111.222 52.8667 109.778 113.533H43.3333C43.3333 87.5333 72.2221 94.7556 66.4444 52.8667" fill="white"/>
<path d="M63.5555 29.7556C93.8888 32.6444 111.222 52.8667 109.778 113.533H43.3333C43.3333 87.5333 72.2221 94.7556 66.4444 52.8667" stroke="black" stroke-width="1.5" stroke-linecap="round" stroke-linejoin="round"/>
<path fill-rule="evenodd" clip-rule="evenodd" d="M69.3333 52.8667C70.431 61.2733 53.2999 74.1578 46.2221 78.8667C37.5555 84.6445 38.0755 91.4045 31.7777 90.4222C28.7675 87.7067 35.851 81.64 31.7777 81.7556C28.8888 81.7556 32.3266 85.3089 28.8888 87.5333C25.9999 87.5333 17.3246 90.4222 17.3333 75.9778C17.3333 70.2 34.6666 41.3111 34.6666 41.3111C34.6666 41.3111 40.1266 35.8222 40.4444 31.2C38.3355 28.3285 38.9999 25.4222 38.9999 22.5333C41.8888 19.6445 47.6666 29.7556 47.6666 29.7556H53.4444C53.4444 29.7556 55.6977 24.0009 60.6666 21.0889C63.5555 21.0889 63.5555 29.7556 63.5555 29.7556" fill="white"/>
<path d="M69.3333 52.8667C70.431 61.2733 53.2999 74.1578 46.2221 78.8667C37.5555 84.6445 38.0755 91.4045 31.7777 90.4222C28.7675 87.7067 35.851 81.64 31.7777 81.7556C28.8888 81.7556 32.3266 85.3089 28.8888 87.5333C25.9999 87.5333 17.3246 90.4222 17.3333 75.9778C17.3333 70.2 34.6666 41.3111 34.6666 41.3111C34.6666 41.3111 40.1266 35.8222 40.4444 31.2C38.3355 28.3285 38.9999 25.4222 38.9999 22.5333C41.8888 19.6445 47.6666 29.7556 47.6666 29.7556H53.4444C53.4444 29.7556 55.6977 24.0009 60.6666 21.0889C63.5555 21.0889 63.5555 29.7556 63.5555 29.7556" stroke="black" stroke-width="1.5" stroke-linecap="round" stroke-linejoin="round"/>
<path fill-rule="evenodd" clip-rule="evenodd" d="M27.4443 74.5333C27.4443 74.9164 27.2921 75.2838 27.0212 75.5547C26.7504 75.8256 26.383 75.9778 25.9999 75.9778C25.6168 75.9778 25.2494 75.8256 24.9785 75.5547C24.7076 75.2838 24.5554 74.9164 24.5554 74.5333C24.5554 74.1502 24.7076 73.7828 24.9785 73.5119C25.2494 73.241 25.6168 73.0889 25.9999 73.0889C26.383 73.0889 26.7504 73.241 27.0212 73.5119C27.2921 73.7828 27.4443 74.1502 27.4443 74.5333Z" fill="black" stroke="black" stroke-width="1.5" stroke-linecap="round" stroke-linejoin="round"/>
<path fill-rule="evenodd" clip-rule="evenodd" d="M43.1398 46.3667C42.5652 47.3619 41.8823 48.2403 41.2414 48.8087C40.6004 49.377 40.054 49.5887 39.7222 49.3971C39.3905 49.2056 39.3006 48.6265 39.4723 47.7873C39.6441 46.9481 40.0634 45.9175 40.638 44.9222C41.2127 43.927 41.8955 43.0485 42.5365 42.4802C43.1774 41.9119 43.7238 41.7002 44.0556 41.8918C44.3873 42.0833 44.4772 42.6624 44.3055 43.5016C44.1337 44.3408 43.7144 45.3714 43.1398 46.3667Z" fill="black" stroke="black" stroke-width="1.5" stroke-linecap="round" stroke-linejoin="round"/>
</svg>
