<svg width="128" height="130" viewBox="0 0 128 130" fill="none" xmlns="http://www.w3.org/2000/svg">
<path fill-rule="evenodd" clip-rule="evenodd" d="M62.5779 29.7556C92.4445 32.6444 109.511 52.8667 108.089 113.533H42.6667C42.6667 87.5333 71.1112 94.7556 65.4223 52.8667" fill="black"/>
<path d="M62.5779 29.7556C92.4445 32.6444 109.511 52.8667 108.089 113.533H42.6667C42.6667 87.5333 71.1112 94.7556 65.4223 52.8667" stroke="black" stroke-width="1.5" stroke-linecap="round" stroke-linejoin="round"/>
<path fill-rule="evenodd" clip-rule="evenodd" d="M68.2667 52.8667C69.3476 61.2733 52.48 74.1578 45.5111 78.8667C36.9778 84.6444 37.4898 91.4044 31.2889 90.4222C28.325 87.7067 35.2995 81.64 31.2889 81.7556C28.4444 81.7556 31.8293 85.3089 28.4444 87.5333C25.6 87.5333 17.0581 90.4222 17.0667 75.9778C17.0667 70.2 34.1333 41.3111 34.1333 41.3111C34.1333 41.3111 39.5093 35.8222 39.8222 31.2C37.7458 28.3284 38.4 25.4222 38.4 22.5333C41.2444 19.6444 46.9333 29.7556 46.9333 29.7556H52.6222C52.6222 29.7556 54.8409 24.0009 59.7333 21.0889C62.5778 21.0889 62.5778 29.7556 62.5778 29.7556" fill="black"/>
<path d="M68.2667 52.8667C69.3476 61.2733 52.48 74.1578 45.5111 78.8667C36.9778 84.6444 37.4898 91.4044 31.2889 90.4222C28.325 87.7067 35.2995 81.64 31.2889 81.7556C28.4444 81.7556 31.8293 85.3089 28.4444 87.5333C25.6 87.5333 17.0581 90.4222 17.0667 75.9778C17.0667 70.2 34.1333 41.3111 34.1333 41.3111C34.1333 41.3111 39.5093 35.8222 39.8222 31.2C37.7458 28.3284 38.4 25.4222 38.4 22.5333C41.2444 19.6444 46.9333 29.7556 46.9333 29.7556H52.6222C52.6222 29.7556 54.8409 24.0009 59.7333 21.0889C62.5778 21.0889 62.5778 29.7556 62.5778 29.7556" stroke="black" stroke-width="1.5" stroke-linecap="round" stroke-linejoin="round"/>
<path fill-rule="evenodd" clip-rule="evenodd" d="M27.0222 74.5333C27.0222 74.9164 26.8723 75.2838 26.6056 75.5547C26.3389 75.8256 25.9772 75.9778 25.6 75.9778C25.2228 75.9778 24.861 75.8256 24.5943 75.5547C24.3276 75.2838 24.1777 74.9164 24.1777 74.5333C24.1777 74.1502 24.3276 73.7828 24.5943 73.512C24.861 73.2411 25.2228 73.0889 25.6 73.0889C25.9772 73.0889 26.3389 73.2411 26.6056 73.512C26.8723 73.7828 27.0222 74.1502 27.0222 74.5333Z" fill="white" stroke="white" stroke-width="1.5" stroke-linecap="round" stroke-linejoin="round"/>
<path fill-rule="evenodd" clip-rule="evenodd" d="M42.4762 46.3667C41.9104 47.3619 41.238 48.2404 40.607 48.8087C39.9759 49.377 39.4379 49.5887 39.1112 49.3971C38.7846 49.2056 38.6961 48.6265 38.8652 47.7873C39.0343 46.9481 39.4471 45.9175 40.0129 44.9222C40.5787 43.927 41.2511 43.0485 41.8821 42.4802C42.5132 41.9119 43.0512 41.7002 43.3779 41.8918C43.7045 42.0833 43.7931 42.6624 43.624 43.5016C43.4549 44.3408 43.042 45.3714 42.4762 46.3667Z" fill="white" stroke="white" stroke-width="1.5" stroke-linecap="round" stroke-linejoin="round"/>
<path fill-rule="evenodd" clip-rule="evenodd" d="M69.831 30.9111L68.551 35.1L69.9732 35.5333C78.9332 38.4222 86.0444 42.7267 92.4444 55.0333C98.8444 67.34 101.689 84.8178 100.267 113.533L100.124 114.978H106.524L106.667 113.533C108.089 84.4711 104.163 64.8556 97.4221 51.8844C90.6808 38.9133 80.9528 32.7022 71.2817 31.2L69.831 30.9111Z" fill="white"/>
</svg>
