<svg width="129" height="130" viewBox="0 0 129 130" fill="none" xmlns="http://www.w3.org/2000/svg">
<path d="M64.5001 26C58.1648 26 53.0334 31.1711 53.0334 37.5556C53.0334 40.1267 53.8648 42.4956 55.2695 44.4311C49.6794 47.6667 45.8668 53.7044 45.8668 60.6667C45.8668 66.5311 48.5614 71.76 52.7754 75.1978C44.1754 78.26 31.5334 91.2311 31.5334 114.111H97.4668C97.4668 91.2311 84.8248 78.26 76.2248 75.1978C80.4388 71.76 83.1334 66.5311 83.1334 60.6667C83.1334 53.7044 79.3208 47.6667 73.7308 44.4311C75.1354 42.4956 75.9668 40.1267 75.9668 37.5556C75.9668 31.1711 70.8354 26 64.5001 26Z" fill="white" stroke="black" stroke-width="1.5" stroke-linecap="round"/>
</svg>
