<svg width="131" height="130" viewBox="0 0 131 130" fill="none" xmlns="http://www.w3.org/2000/svg">
<path d="M65.5 26C59.0664 26 53.8556 31.1711 53.8556 37.5556C53.8556 40.1267 54.6998 42.4956 56.1262 44.4311C50.4496 47.6667 46.5778 53.7044 46.5778 60.6667C46.5778 66.5311 49.3142 71.76 53.5936 75.1978C44.8602 78.26 32.0222 91.2311 32.0222 114.111H98.9778C98.9778 91.2311 86.1398 78.26 77.4064 75.1978C81.6858 71.76 84.4222 66.5311 84.4222 60.6667C84.4222 53.7044 80.5504 47.6667 74.8738 44.4311C76.3002 42.4956 77.1444 40.1267 77.1444 37.5556C77.1444 31.1711 71.9336 26 65.5 26Z" fill="black" stroke="black" stroke-width="1.5" stroke-linecap="round"/>
</svg>
