<svg width="128" height="130" viewBox="0 0 128 130" fill="none" xmlns="http://www.w3.org/2000/svg">
<path d="M25.5999 75.1111C49.7777 70.7778 85.3332 70.7778 102.4 75.1111L109.511 39L88.1777 72.2222L87.3243 31.4889L72.5332 70.7778L63.9999 28.8889L55.4665 70.7778L40.6754 31.4889L39.8221 72.2222L18.4888 39L25.5999 75.1111Z" fill="white" stroke="black" stroke-width="1.5" stroke-linejoin="round"/>
<path d="M25.5999 75.1111C25.5999 80.8889 29.8665 80.8889 32.711 86.6667C35.5554 91 35.5554 89.5556 34.1332 96.7778C29.8665 99.6667 31.2887 104 31.2887 104C27.0221 108.333 31.2887 111.222 31.2887 111.222C49.7776 114.111 78.2221 114.111 96.711 111.222C96.711 111.222 100.978 108.333 96.711 104C96.711 104 98.1332 99.6667 93.8665 96.7778C92.4443 89.5556 92.4443 91 95.2887 86.6667C98.1332 80.8889 102.4 80.8889 102.4 75.1111C78.2221 70.7778 49.7776 70.7778 25.5999 75.1111Z" fill="white" stroke="black" stroke-width="1.5" stroke-linejoin="round"/>
<path d="M32.7109 86.6667C42.6665 83.7778 85.3332 83.7778 95.2887 86.6667" stroke="black" stroke-width="1.5" stroke-linejoin="round"/>
<path d="M34.1333 96.7778C51.2 93.8889 76.8 93.8889 93.8666 96.7778" stroke="black" stroke-width="1.5" stroke-linejoin="round"/>
<path d="M17.0666 40.4444C20.2085 40.4444 22.7555 37.8576 22.7555 34.6667C22.7555 31.4757 20.2085 28.8889 17.0666 28.8889C13.9247 28.8889 11.3777 31.4757 11.3777 34.6667C11.3777 37.8576 13.9247 40.4444 17.0666 40.4444Z" fill="white" stroke="black" stroke-width="1.5" stroke-linejoin="round"/>
<path d="M39.8222 31.7778C42.9641 31.7778 45.5111 29.191 45.5111 26C45.5111 22.809 42.9641 20.2222 39.8222 20.2222C36.6803 20.2222 34.1333 22.809 34.1333 26C34.1333 29.191 36.6803 31.7778 39.8222 31.7778Z" fill="white" stroke="black" stroke-width="1.5" stroke-linejoin="round"/>
<path d="M63.9999 28.8889C67.1418 28.8889 69.6888 26.3021 69.6888 23.1111C69.6888 19.9201 67.1418 17.3333 63.9999 17.3333C60.858 17.3333 58.311 19.9201 58.311 23.1111C58.311 26.3021 60.858 28.8889 63.9999 28.8889Z" fill="white" stroke="black" stroke-width="1.5" stroke-linejoin="round"/>
<path d="M88.1777 31.7778C91.3195 31.7778 93.8665 29.191 93.8665 26C93.8665 22.809 91.3195 20.2222 88.1777 20.2222C85.0358 20.2222 82.4888 22.809 82.4888 26C82.4888 29.191 85.0358 31.7778 88.1777 31.7778Z" fill="white" stroke="black" stroke-width="1.5" stroke-linejoin="round"/>
<path d="M110.933 40.4444C114.075 40.4444 116.622 37.8576 116.622 34.6667C116.622 31.4757 114.075 28.8889 110.933 28.8889C107.791 28.8889 105.244 31.4757 105.244 34.6667C105.244 37.8576 107.791 40.4444 110.933 40.4444Z" fill="white" stroke="black" stroke-width="1.5" stroke-linejoin="round"/>
</svg>
