<svg width="130" height="131" viewBox="0 0 130 131" fill="none" xmlns="http://www.w3.org/2000/svg">
<path d="M26.0001 75.6889C50.5556 71.3222 86.6667 71.3222 104 75.6889L111.222 39.3L89.5556 72.7778L88.6889 31.7311L73.6667 71.3222L65.0001 29.1111L56.3334 71.3222L41.3112 31.7311L40.4445 72.7778L18.7778 39.3L26.0001 75.6889Z" fill="black" stroke="black" stroke-width="1.5" stroke-linejoin="round"/>
<path d="M26 75.6889C26 81.5111 30.3333 81.5111 33.2222 87.3334C36.1111 91.7 36.1111 90.2445 34.6667 97.5222C30.3333 100.433 31.7778 104.8 31.7778 104.8C27.4444 109.167 31.7778 112.078 31.7778 112.078C50.5556 114.989 79.4444 114.989 98.2222 112.078C98.2222 112.078 102.556 109.167 98.2222 104.8C98.2222 104.8 99.6667 100.433 95.3333 97.5222C93.8889 90.2445 93.8889 91.7 96.7778 87.3334C99.6667 81.5111 104 81.5111 104 75.6889C79.4444 71.3222 50.5556 71.3222 26 75.6889Z" fill="black" stroke="black" stroke-width="1.5" stroke-linecap="round" stroke-linejoin="round"/>
<path d="M33.2224 87.3334C43.3335 84.4222 86.6669 84.4222 96.778 87.3334Z" fill="black"/>
<path d="M33.2224 87.3334C43.3335 84.4222 86.6669 84.4222 96.778 87.3334" stroke="black" stroke-width="1.5" stroke-linecap="round" stroke-linejoin="round"/>
<path d="M34.6667 97.5222C52.0001 94.6111 78.0001 94.6111 95.3334 97.5222Z" fill="black"/>
<path d="M34.6667 97.5222C52.0001 94.6111 78.0001 94.6111 95.3334 97.5222" stroke="black" stroke-width="1.5" stroke-linecap="round" stroke-linejoin="round"/>
<path d="M17.3334 40.7556C20.5244 40.7556 23.1112 38.1489 23.1112 34.9333C23.1112 31.7178 20.5244 29.1111 17.3334 29.1111C14.1425 29.1111 11.5557 31.7178 11.5557 34.9333C11.5557 38.1489 14.1425 40.7556 17.3334 40.7556Z" fill="black" stroke="black" stroke-width="1.5" stroke-linecap="round" stroke-linejoin="round"/>
<path d="M40.4445 32.0222C43.6355 32.0222 46.2223 29.4155 46.2223 26.2C46.2223 22.9845 43.6355 20.3778 40.4445 20.3778C37.2535 20.3778 34.6667 22.9845 34.6667 26.2C34.6667 29.4155 37.2535 32.0222 40.4445 32.0222Z" fill="black" stroke="black" stroke-width="1.5" stroke-linecap="round" stroke-linejoin="round"/>
<path d="M65.0002 29.1111C68.1912 29.1111 70.778 26.5044 70.778 23.2889C70.778 20.0734 68.1912 17.4667 65.0002 17.4667C61.8092 17.4667 59.2224 20.0734 59.2224 23.2889C59.2224 26.5044 61.8092 29.1111 65.0002 29.1111Z" fill="black" stroke="black" stroke-width="1.5" stroke-linecap="round" stroke-linejoin="round"/>
<path d="M89.5556 32.0222C92.7466 32.0222 95.3334 29.4155 95.3334 26.2C95.3334 22.9845 92.7466 20.3778 89.5556 20.3778C86.3646 20.3778 83.7778 22.9845 83.7778 26.2C83.7778 29.4155 86.3646 32.0222 89.5556 32.0222Z" fill="black" stroke="black" stroke-width="1.5" stroke-linecap="round" stroke-linejoin="round"/>
<path d="M112.667 40.7556C115.858 40.7556 118.444 38.1489 118.444 34.9333C118.444 31.7178 115.858 29.1111 112.667 29.1111C109.476 29.1111 106.889 31.7178 106.889 34.9333C106.889 38.1489 109.476 40.7556 112.667 40.7556Z" fill="black" stroke="black" stroke-width="1.5" stroke-linecap="round" stroke-linejoin="round"/>
<path d="M31.7778 112.078C53.2936 119.62 76.7065 119.62 98.2223 112.078" stroke="black" stroke-width="1.5" stroke-linejoin="round"/>
<path d="M31.7778 84.4222C53.2936 76.8796 76.7065 76.8796 98.2223 84.4222" stroke="white" stroke-width="1.5" stroke-linecap="round" stroke-linejoin="round"/>
<path d="M36.1113 91.7H93.8891" stroke="white" stroke-width="1.5" stroke-linecap="round" stroke-linejoin="round"/>
<path d="M33.2224 100.433C53.8569 107.317 76.1435 107.317 96.778 100.433" stroke="white" stroke-width="1.5" stroke-linecap="round" stroke-linejoin="round"/>
<path d="M30.3335 109.167C52.7223 117.401 77.278 117.401 99.6668 109.167" stroke="white" stroke-width="1.5" stroke-linecap="round" stroke-linejoin="round"/>
</svg>
