<svg width="129" height="131" viewBox="0 0 129 131" fill="none" xmlns="http://www.w3.org/2000/svg">
<path fill-rule="evenodd" clip-rule="evenodd" d="M25.8 114.407H103.2V105.673H25.8V114.407Z" fill="black" stroke="black" stroke-width="1.5" stroke-linejoin="round"/>
<path fill-rule="evenodd" clip-rule="evenodd" d="M35.8335 94.0289L40.1335 86.7511H88.8668L93.1668 94.0289H35.8335Z" fill="black" stroke="black" stroke-width="1.5" stroke-linejoin="round"/>
<path fill-rule="evenodd" clip-rule="evenodd" d="M34.4001 105.673V94.0289H94.6001V105.673H34.4001Z" fill="black" stroke="black" stroke-width="1.5" stroke-linejoin="round"/>
<path fill-rule="evenodd" clip-rule="evenodd" d="M40.1333 86.7511V48.9067H88.8666V86.7511H40.1333Z" fill="black" stroke="black" stroke-width="1.5"/>
<path fill-rule="evenodd" clip-rule="evenodd" d="M40.1334 48.9067L31.5334 41.6289H97.4668L88.8668 48.9067H40.1334Z" fill="black" stroke="black" stroke-width="1.5" stroke-linejoin="round"/>
<path fill-rule="evenodd" clip-rule="evenodd" d="M31.5334 41.6289V27.0733H43.0001V32.8956H57.3334V27.0733H71.6668V32.8956H86.0001V27.0733H97.4668V41.6289H31.5334Z" fill="black" stroke="black" stroke-width="1.5" stroke-linejoin="round"/>
<path d="M34.4001 104.218H94.6001" stroke="white" stroke-linecap="round"/>
<path d="M37.2666 92.5733H91.7333" stroke="white" stroke-linecap="round"/>
<path d="M40.1333 86.7511H88.8666" stroke="white" stroke-linecap="round"/>
<path d="M40.1333 48.9067H88.8666" stroke="white" stroke-linecap="round"/>
<path d="M31.5334 41.6289H97.4668" stroke="white" stroke-linecap="round"/>
</svg>
