<svg width="131" height="130" viewBox="0 0 131 130" fill="none" xmlns="http://www.w3.org/2000/svg">
<path fill-rule="evenodd" clip-rule="evenodd" d="M26.2 113.533H104.8V104.867H26.2V113.533Z" fill="white" stroke="black" stroke-width="1.5" stroke-linejoin="round"/>
<path fill-rule="evenodd" clip-rule="evenodd" d="M34.9333 104.867V93.3111H96.0667V104.867H34.9333Z" fill="white" stroke="black" stroke-width="1.5" stroke-linejoin="round"/>
<path fill-rule="evenodd" clip-rule="evenodd" d="M32.0222 41.3111V26.8667H43.6667V32.6444H58.2222V26.8667H72.7778V32.6444H87.3333V26.8667H98.9778V41.3111" fill="white"/>
<path d="M32.0222 41.3111V26.8667H43.6667V32.6444H58.2222V26.8667H72.7778V32.6444H87.3333V26.8667H98.9778V41.3111" stroke="black" stroke-width="1.5" stroke-linejoin="round"/>
<path fill-rule="evenodd" clip-rule="evenodd" d="M98.9778 41.3111L90.2444 49.9778H40.7556L32.0222 41.3111" fill="white"/>
<path d="M98.9778 41.3111L90.2444 49.9778H40.7556L32.0222 41.3111" stroke="black" stroke-width="1.5" stroke-linecap="round" stroke-linejoin="round"/>
<path fill-rule="evenodd" clip-rule="evenodd" d="M90.2445 49.9778V86.0889H40.7556V49.9778" fill="white"/>
<path d="M90.2445 49.9778V86.0889H40.7556V49.9778" stroke="black" stroke-width="1.5"/>
<path fill-rule="evenodd" clip-rule="evenodd" d="M90.2445 86.0889L94.6111 93.3111H36.3889L40.7556 86.0889" fill="white"/>
<path d="M90.2445 86.0889L94.6111 93.3111H36.3889L40.7556 86.0889" stroke="black" stroke-width="1.5" stroke-linecap="round" stroke-linejoin="round"/>
<path d="M32.0222 41.3111H98.9778" stroke="black" stroke-width="1.5" stroke-linecap="round"/>
</svg>
